name Walk9.mot
datacolumns 19
datarows 10
range 1.06500000 1.11000000
endheader

                time	   L_ground_force_vx	   L_ground_force_vy	   L_ground_force_vz	   L_ground_force_px	   L_ground_force_py	   L_ground_force_pz	   R_ground_force_vx	   R_ground_force_vy	   R_ground_force_vz	   R_ground_force_px	   R_ground_force_py	   R_ground_force_pz	   L_ground_torque_x	   L_ground_torque_y	   L_ground_torque_z	   R_ground_torque_x	   R_ground_torque_y	   R_ground_torque_z	
          1.06500000	         -5.48461968	         11.82356179	         -0.28228861	         -0.21613222	          0.00000000	         -0.02364565	         -0.00000000	         -0.00000000	         -0.00000000	         -0.00000000	          0.00000000	         -0.00000000	          0.00000000	          0.00450653	          0.00000000	          0.00000000	          0.00000000	          0.00000000	
          1.07000000	        -20.77436821	         78.18494228	         -1.85728053	         -0.42425257	          0.00000000	         -0.04458660	          0.00000000	          0.00000000	         -0.00000000	          0.00000000	          0.00000000	          0.00000000	          0.00000000	          0.12171184	          0.00000000	          0.00000000	          0.00000000	          0.00000000	
          1.07500000	        -34.34106000	        178.61735624	         -6.04208364	         -0.47319025	          0.00000000	         -0.04824695	          0.00000000	          0.00000000	          0.00000000	          0.00000000	          0.00000000	          0.00000000	          0.00000000	          0.27375329	          0.00000000	          0.00000000	          0.00000000	          0.00000000	
          1.08000000	        -35.51169499	        242.35197985	        -13.96291371	         -0.46291381	          0.00000000	         -0.04695927	          0.00000000	          0.00000000	          0.00000000	         -0.00000000	          0.00000000	         -0.00000000	          0.00000000	          0.33218135	          0.00000000	          0.00000000	         -0.00000000	          0.00000000	
          1.08500000	        -29.67151340	        253.56095126	        -21.76861871	         -0.45323709	          0.00000000	         -0.04670202	         -0.00000000	         -0.00000000	          0.00000000	         -0.00000000	          0.00000000	         -0.00000000	          0.00000000	          0.30671710	          0.00000000	          0.00000000	         -0.00000000	          0.00000000	
          1.09000000	        -25.54681230	        261.91216070	        -25.60613827	         -0.44969268	          0.00000000	         -0.04730797	         -0.00000000	         -0.00000000	         -0.00000000	         -0.00000000	          0.00000000	         -0.00000000	          0.00000000	          0.34224657	          0.00000000	          0.00000000	          0.00000000	          0.00000000	
          1.09500000	        -27.58902892	        289.73986092	        -24.74315314	         -0.44690634	          0.00000000	         -0.04881949	         -0.00000000	         -0.00000000	         -0.00000000	          0.00000000	          0.00000000	          0.00000000	          0.00000000	          0.48783240	          0.00000000	          0.00000000	          0.00000000	          0.00000000	
          1.10000000	        -35.95759000	        317.91347213	        -18.60293009	         -0.44382501	          0.00000000	         -0.05056292	          0.00000000	          0.00000000	         -0.00000000	          0.00000000	          0.00000000	          0.00000000	          0.00000000	          0.61370457	          0.00000000	          0.00000000	          0.00000000	          0.00000000	
          1.10500000	        -46.86457872	        330.49152500	        -10.52124001	         -0.44121706	          0.00000000	         -0.05154113	          0.00000000	          0.00000000	          0.00000000	          0.00000000	          0.00000000	          0.00000000	          0.00000000	          0.64257025	          0.00000000	          0.00000000	         -0.00000000	          0.00000000	
          1.11000000	        -55.34260736	        334.40635224	         -4.89894828	         -0.43846409	          0.00000000	         -0.05225112	          0.00000000	          0.00000000	          0.00000000	         -0.00000000	          0.00000000	         -0.00000000	          0.00000000	          0.56824861	          0.00000000	          0.00000000	         -0.00000000	          0.00000000	
